<?xml version="1.0" encoding="UTF-8" standalone="no"?>
<svg
   version="1.1"
   id="svg2"
   viewBox="0 0 708.66142 708.66141"
   height="200mm"
   width="200mm"
   xmlns="http://www.w3.org/2000/svg"
   xmlns:svg="http://www.w3.org/2000/svg"
   xmlns:rdf="http://www.w3.org/1999/02/22-rdf-syntax-ns#"
   xmlns:cc="http://creativecommons.org/ns#"
   xmlns:dc="http://purl.org/dc/elements/1.1/">
  <defs
     id="defs4">
    <rect
       x="-901.68729"
       y="437.34533"
       width="418.44768"
       height="170.07875"
       id="rect166543" />
    <rect
       x="-944.88189"
       y="-215.973"
       width="1540.0537"
       height="156.58043"
       id="rect157787" />
    <rect
       x="-971.87851"
       y="-126.88414"
       width="259.1676"
       height="97.18785"
       id="rect135793" />
    <rect
       x="-939.48256"
       y="305.06187"
       width="550.73116"
       height="91.788527"
       id="rect110390" />
    <rect
       x="-882.78965"
       y="367.15411"
       width="812.59842"
       height="202.47469"
       id="rect101838" />
    <rect
       x="-721.58298"
       y="68.722189"
       width="416.15103"
       height="125.99068"
       id="rect85066" />
    <rect
       x="-721.58298"
       y="68.722189"
       width="416.15103"
       height="125.99068"
       id="rect94202" />
  </defs>
  <metadata
     id="metadata7">
    <rdf:RDF>
      <cc:Work
         rdf:about="">
        <dc:format>image/svg+xml</dc:format>
        <dc:type
           rdf:resource="http://purl.org/dc/dcmitype/StillImage" />
      </cc:Work>
    </rdf:RDF>
  </metadata>
  <g
     id="g262139">
    <g
       transform="translate(0,-343.70079)"
       id="layer1"
       style="display:inline;opacity:1">
      <g
         transform="matrix(0.45833437,0,0,0.45833437,-1629.5558,446.25431)"
         id="g3359"
         style="display:inline;opacity:1">
        <ellipse
           style="opacity:0.53;fill:#ffffff;fill-opacity:1;stroke:#000000;stroke-width:4.01549;stroke-linecap:round;stroke-linejoin:round;stroke-miterlimit:4;stroke-dasharray:none;stroke-dashoffset:0;stroke-opacity:1"
           id="path3357"
           cx="4339.6177"
           cy="559.94379"
           rx="745.81903"
           ry="740.05975" />
        <path
           id="path3349"
           d="m 4308.6046,1308.5404 c -159.0895,-6.4165 -312.1164,-62.0254 -435.5,-158.2576 -34.0309,-26.5422 -77.2834,-67.0556 -103.3447,-96.8 -108.058,-123.3299 -170.8973,-271.55379 -184.2979,-434.71826 -2.0342,-24.76842 -2.3096,-85.64888 -0.4958,-109.60594 13.9444,-184.17995 91.7546,-352.0077 222.3103,-479.49792 129.9516,-126.90033 294.3068,-200.80942 477.3281,-214.65026 21.9649,-1.66108 85.0352,-1.66108 107,0 183.0213,13.84084 347.3765,87.74993 477.3281,214.65026 119.5295,116.72288 196.091,269.67218 217.6929,434.89198 4.4696,34.18523 5.7859,56.16305 5.7859,96.60594 0,40.44289 -1.3163,62.42071 -5.7859,96.60594 -19.1754,146.66075 -81.0762,282.61226 -180.1763,395.71826 -26.0613,29.7444 -69.3138,70.2578 -103.3447,96.8 -115.3405,89.959 -257.6401,144.903 -405,156.3765 -19.1386,1.4901 -71.7681,2.5963 -89.5,1.8811 z m 88.1117,-11.9037 c 208.2254,-16.2923 398.432,-117.5106 528.0064,-280.9781 82.031,-103.4881 134.5651,-227.54117 151.8203,-358.50582 4.4578,-33.8342 5.8482,-56.65649 5.8482,-95.99418 0,-49.5649 -3.1619,-86.16212 -11.3606,-131.49418 -36.4282,-201.41831 -158.0742,-380.62509 -333.426,-491.19741 -102.8585,-64.85994 -216.8226,-102.59036 -341.108,-112.93159 -27.4114,-2.28077 -89.3726,-2.28077 -116.784,0 -100.3377,8.34865 -190.3385,33.4557 -279.0746,77.85194 -127.4172,63.74908 -237.5655,167.5082 -308.6774,290.77252 -55.5001,96.20314 -87.0993,197.77968 -96.4368,309.99872 -2.3456,28.18993 -2.3456,85.81007 0,114 14.8129,178.02303 88.6157,337.222 214.7112,463.1503 133.4655,133.2885 310.1261,209.7657 501.8696,217.2616 16.3354,0.6386 66.3419,-0.5043 84.6117,-1.9338 z m 200.7265,-370.2281 c -43.4934,-48.3414 -71.3054,-78.1361 -102.5411,-109.8508 -10.8884,-11.05541 -19.7946,-20.50541 -19.7917,-20.99998 0,-0.49457 2.7853,-4.49922 6.183,-8.89922 23.8181,-30.84494 39.7648,-52.7702 39.1373,-53.81009 -0.395,-0.65445 -2.7253,-4.11491 -5.1786,-7.68991 -10.2033,-14.86841 -17.0477,-34.96651 -20.1079,-59.04497 -0.591,-4.65027 -1.504,-19.25503 -2.0289,-32.45503 -2.0063,-50.45221 -10.9856,-98.61431 -24.1027,-129.27861 -20.7026,-48.39715 -55.7988,-78.60412 -100.9467,-86.88379 -13.1245,-2.4069 -48.931,-2.41384 -64.5825,-0.0125 -61.3896,9.41863 -130.4084,51.92255 -175.6569,108.17492 -12.3875,15.39999 -23.1062,32.34845 -32.2539,51 -13.5076,27.54094 -16.7527,37.99598 -21.486,69.22254 -3.445,22.7278 -5.7053,30.09626 -14.9629,48.77746 -7.7052,15.54861 -13.8862,23.89468 -22.5286,30.41971 -6.9644,5.25823 -20.2916,12.18562 -29.0509,15.10054 -3.5227,1.17227 -7.2459,2.88478 -8.2737,3.80558 -2.5,2.23957 -22.7623,89.96737 -21.1571,91.60167 0.5794,0.5899 27.4557,23.1225 59.7251,50.0725 32.2693,26.95 58.8429,49.5625 59.0524,50.25 0.2989,0.9814 -6.2979,1.25 -30.6947,1.25 h -31.0754 l -12.2579,-9.3328 c -54.459,-41.4635 -118.3125,-91.0995 -118.5612,-92.1626 -0.1668,-0.7131 4.8957,-20.3598 11.25,-43.65931 6.3543,-23.29949 11.5533,-43.11674 11.5533,-44.03836 0,-1.10541 -3.3489,-3.42699 -9.8404,-6.82173 -17.3236,-9.05945 -36.3698,-25.07319 -53.4266,-44.92013 -16.0923,-18.72481 -24.0204,-32.60299 -27.2723,-47.74042 -3.6296,-16.89558 -4.2324,-72.54197 -1.0177,-93.94509 7.03,-46.80404 32.8105,-93.73031 84.904,-154.54404 14.9876,-17.49655 32.954,-34.60956 81.153,-77.29874 52.3353,-46.35261 73.376,-67.50339 91.7071,-92.18679 25.5311,-34.3785 37.2216,-66.08479 38.4752,-104.35001 0.5699,-17.39245 0.045,-25.24638 -3.2738,-49 -1.982,-14.1859 -2.3436,-41.84337 -0.6227,-47.63351 2.337,-7.86286 6.361,-7.91947 10.3271,-0.14529 4.5552,8.92905 10.4616,38.76604 14.3928,72.70825 4.2389,36.59813 -5.7435,81.78995 -26.5223,120.07055 -19.359,35.66496 -42.5077,61.73436 -106.9834,120.48158 -44.8803,40.89279 -59.2737,55.51045 -77.411,78.61699 -17.3538,22.10831 -31.824,48.29187 -39.4597,71.40143 -4.8631,14.71844 -11.6373,46.1361 -13.641,63.26473 -4.5818,39.16876 1.9494,76.69336 16.5674,95.18647 6.9901,8.84317 17.1006,13.02942 31.4443,13.01957 10.8234,-0.007 20.3805,-2.18996 30.1923,-6.8949 20.0626,-9.62033 24.0843,-19.01647 28.2817,-66.07587 4.9087,-55.03264 8.8489,-77.13618 19.6565,-110.26675 21.6485,-66.3632 59.516,-122.16495 111.665,-164.55021 59.5736,-48.41978 138.3583,-75.45092 219.7045,-75.38089 22.9603,0.0198 36.3055,1.04221 55.5,4.25213 67.8477,11.34624 127.4329,42.07784 179.3863,92.52012 38.6638,37.53922 66.8532,78.69382 94.3373,137.72626 12.5051,26.85938 24.8306,58.93237 26.3864,68.66189 0.6107,3.81925 0.5601,3.89658 -3.2448,4.95306 -2.1259,0.59028 -4.487,1.07575 -5.247,1.07881 -0.76,0.003 -6.9903,-5.28192 -13.8452,-11.74442 -22.6799,-21.3818 -28.3575,-26.49887 -28.8522,-26.00411 -0.2693,0.2693 3.587,12.57045 8.5696,27.33587 4.9827,14.76542 8.8786,27.31243 8.6577,27.88223 -0.2209,0.56981 -3.9539,5.76101 -8.2955,11.53601 -16.6363,22.12897 -22.2369,40.04999 -21.0621,67.39521 0.6559,15.26873 2.7018,23.58482 9.1676,37.26427 7.5891,16.05617 21.6645,32.31925 36.6649,42.36356 9.8136,6.57123 9.8851,6.65525 8.6582,10.17472 -1.598,4.58403 -11.4321,13.98282 -19.0976,18.25219 -8.3798,4.66722 -25.8339,10.76784 -39.1836,13.69561 -8.3752,1.83679 -13.1684,2.19532 -29.5,2.20656 -17.5343,0.0121 -20.2057,-0.2143 -26.5,-2.24544 -13.0506,-4.21135 -11.079,-5.20392 -21.9215,11.03598 -5.2682,7.89065 -9.5785,15.07388 -9.5785,15.96273 0,0.88884 28.7802,34.82871 63.9561,75.42191 35.1758,40.5933 63.7242,74.1809 63.4409,74.6393 -0.2833,0.4584 -13.7393,0.8334 -29.9022,0.8334 h -29.3873 z m -643.197,7 c -1.8559,-4.6334 -19.1437,-66.5808 -18.7037,-67.0208 0.2269,-0.2269 1.0855,-0.034 1.908,0.4291 4.5683,2.571 86.5869,67.0473 86.6177,68.0917 0.029,0.9765 -7.4859,1.25 -34.3419,1.25 h -34.3786 z m 696.52,-23.5 c -49.607,-55.9701 -85.5987,-97.14584 -85.234,-97.51055 0.2326,-0.23253 1.1934,0.008 2.1353,0.53556 4.9752,2.78429 146.3353,110.91769 146.3821,111.97499 0.043,0.9675 -5.4754,1.25 -24.4127,1.25 h -24.4681 z m 75.8388,-173.79934 c -9.627,-1.81855 -14.9988,-3.58746 -15.2315,-5.01571 -0.2165,-1.32856 28.5335,-23.94495 30.4164,-23.92732 1.4678,0.0137 31.7171,23.46621 31.5906,24.49237 -0.068,0.55 -2.9701,1.82295 -6.4494,2.82878 -7.3829,2.13431 -32.3069,3.13672 -40.3261,1.62188 z m -30.1414,-10.35561 c -24.0364,-12.90633 -40.8348,-33.15063 -48.2064,-58.09505 -8.816,-29.83231 -1.4037,-63.79984 18.9849,-87 2.4168,-2.75 4.9484,-5.7197 5.6259,-6.59934 1.019,-1.32299 -0.4134,-6.0564 -8.2891,-27.39312 -5.2366,-14.18657 -9.2689,-26.04591 -8.9607,-26.35407 0.3082,-0.30817 9.0497,7.92025 19.4256,18.28537 14.3615,14.34657 19.3064,18.7113 20.7132,18.28282 1.0164,-0.30957 4.998,-1.88329 8.848,-3.49717 24.1765,-10.1345 52.8235,-10.1345 77,0 3.85,1.61388 7.7757,3.17298 8.7237,3.46468 1.2339,0.37964 6.9173,-4.46687 20,-17.05487 10.052,-9.67186 18.4326,-17.12733 18.6236,-16.56771 0.1911,0.55963 -4.014,11.32671 -9.3445,23.92685 l -9.692,22.90934 7.1917,8.29861 c 16.5735,19.12447 24.2136,39.09708 24.2136,63.29861 0,29.70333 -13.39,56.57925 -37.4461,75.16024 -6.7272,5.19614 -21.4357,13.29906 -24.1841,13.32305 -1.0528,0.009 -9.7153,-5.8379 -19.25,-12.99353 l -17.3359,-13.01024 v -12.50237 -12.50237 l 5.362,-2.37133 c 5.4762,-2.42186 8.638,-5.65241 8.638,-8.82596 0,-2.86592 -2.4621,-2.04089 -3.7005,1.24 -3.0365,8.04465 -20.1892,7.66335 -23.2997,-0.51795 -1.1129,-2.92719 -2.9998,-3.32623 -2.9998,-0.6344 0,2.92972 3.5442,6.70034 8.4777,9.01938 l 4.5223,2.12573 v 12.42933 12.42933 l -10.25,7.89164 c -19.0039,14.63141 -23.8667,18.23952 -24.5598,18.22274 -0.3796,-0.009 -4.3538,-1.9839 -8.8316,-4.38824 z m 17.0626,-91.15906 c 2.2895,-2.28951 0.2688,-5.57823 -8.5925,-13.98481 -7.3056,-6.93078 -18.2442,-13.58194 -24.52,-14.90933 -7.0923,-1.50008 -9.545,3.83737 -4.689,10.20391 3.2753,4.29423 12.9995,11.51717 20.8803,15.50959 9.8648,4.99748 14.2753,5.82652 16.9212,3.18064 z m 70.694,-0.79329 c 7.4479,-3.06377 18.7807,-10.67821 23.2418,-15.61608 9.9052,-10.96392 2.4394,-15.9276 -12.4487,-8.27662 -7.5897,3.9003 -23.2438,17.58095 -24.444,21.36241 -1.6221,5.11101 4.5817,6.26094 13.6509,2.53029 z"
           style="display:inline;fill:#070707" />
      </g>
    </g>
    <g
       aria-label="Parab the Sim Pilot"
       transform="rotate(1.4017911,890.60935,481.90406)"
       id="text157785"
       style="font-size:105.732px;line-height:1.25;letter-spacing:9.375px;word-spacing:9.375px;white-space:pre;display:inline">
      <path
         d="m 81.008049,431.09192 2.402964,0.083 q 2.382374,7.13341 4.882469,12.01479 -3.811236,-0.44777 -9.832231,-0.59918 l -14.994377,-0.47135 0.762775,4.69825 q 0.58969,3.25477 3.218579,6.62323 2.640461,3.41877 7.750796,5.36889 5.121906,2.00043 10.253858,0.82005 5.081638,-1.1688 7.20534,-5.52444 2.135274,-4.30532 0.410996,-11.802 -1.967298,-8.55325 -8.130215,-15.77066 -6.112604,-7.22898 -13.783891,-10.17932 -7.609402,-2.91159 -14.049498,-1.43033 -3.169735,0.72906 -5.268294,2.43016 -2.048246,1.68954 -3.629575,5.17877 -1.244233,2.88196 -2.954883,3.27542 -1.106892,0.25459 -2.046748,-0.37684 -0.939856,-0.63143 -1.194447,-1.73832 -0.682768,-2.96848 2.756127,-6.67307 3.438895,-3.70459 9.677738,-5.13956 11.421109,-2.62692 22.843273,3.96356 15.015553,8.62463 19.45933,27.94492 1.689561,7.34574 0.853885,12.46462 -0.824104,5.16919 -3.612451,8.24737 -2.776775,3.1285 -6.650896,4.01957 -4.930699,1.13409 -10.474232,-1.08721 -5.481648,-2.18256 -9.881075,-7.95146 -4.387856,-5.71859 -6.19314,-13.56746 -0.277736,-1.20752 -0.716985,-3.80821 l -16.561637,-0.37575 q -4.206193,-0.0921 -8.369622,-0.45881 -0.05331,4.1443 0.617886,7.06247 0.84478,3.67287 3.225627,7.57516 l -2.95641,0.0443 q -1.95922,-3.68141 -2.584126,-6.39833 -0.601762,-2.61629 -1.20555,-7.77491 -0.422654,-4.14078 -1.001271,-6.65645 -1.122516,-4.88038 -3.460099,-9.74617 l 2.80547,-0.01 q 2.058848,5.03584 4.108621,6.57743 2.889003,2.19616 10.125064,2.33298 l 31.885062,0.66547 q 2.22888,0.0171 3.084205,-0.17964 0.805012,-0.18515 1.258331,-0.97809 0.503632,-0.80452 0.29533,-1.71016 -0.08101,-0.35219 -0.332073,-0.98312 z"
         style="font-style:italic;font-size:105.732px;font-family:'Monotype Corsiva';-inkscape-font-specification:'Monotype Corsiva Italic';text-align:center;text-anchor:middle"
         id="path261553" />
      <path
         d="m 100.07221,498.17087 2.01226,2.84315 -13.527593,1.6133 q -8.078625,0.95164 -18.236041,3.08019 -5.522573,1.14312 -6.992343,1.7765 -1.46977,0.63338 -0.95898,1.81867 0.326906,0.7586 2.037663,1.98895 3.021002,2.18357 6.79326,3.76231 l -1.195254,2.31402 q -7.260045,-3.28008 -8.956919,-4.34776 -3.393748,-2.13538 -5.574432,-4.45621 -1.440169,-1.51561 -2.175707,-3.22244 -0.531222,-1.23271 -0.227889,-2.09424 0.303332,-0.86154 1.393807,-1.33146 0.711179,-0.30648 2.107342,-0.4584 l 7.265288,-0.88222 q -6.640548,-1.97298 -12.580393,-6.10306 -3.672457,-2.52121 -4.918785,-5.41334 -1.185034,-2.74989 0.125476,-5.05736 1.749529,-3.11504 5.969191,-4.93345 5.025665,-2.16575 12.333387,-2.16679 7.328154,0.0464 14.294822,2.38475 6.966668,2.33838 11.482584,6.29506 3.456614,3.06396 6.051429,9.08528 0.653811,1.51718 1.138407,3.1635 z m -9.787542,-2.75304 q -0.581776,-2.78499 -1.337745,-4.53923 -1.838845,-4.26708 -5.57836,-6.4221 -3.692103,-2.17545 -10.993276,-2.28966 -7.23333,-0.0872 -13.302057,2.52801 -3.224012,1.38935 -4.176443,3.09277 -0.952431,1.70342 -0.196462,3.45767 1.409781,3.27142 6.532362,5.50502 5.169992,2.21317 12.563633,1.10699 z"
         style="font-style:italic;font-size:105.732px;font-family:'Monotype Corsiva';-inkscape-font-specification:'Monotype Corsiva Italic';text-align:center;text-anchor:middle"
         id="path261555" />
      <path
         d="m 73.888625,539.86608 -4.014469,-6.5618 13.732476,-4.16487 q 10.093796,-3.08868 18.956558,-6.21101 2.1802,-0.78913 2.66463,-1.0855 1.05693,-0.64662 0.46419,-1.61548 -0.40414,-0.66059 -2.16418,-1.46 -1.71601,-0.82635 -7.465526,-2.21114 l 0.706139,-2.30821 q 7.122517,1.45264 11.928067,4.26226 4.87653,2.82672 6.25061,5.07271 0.48497,0.7927 0.35804,1.47558 -0.0559,0.69997 -0.62844,1.05022 -0.57251,0.35026 -3.38895,1.28654 l -9.04151,2.92908 q 9.72341,0.16404 18.12154,2.71246 4.02162,1.23147 5.12627,3.03707 0.80828,1.32116 0.46636,2.7408 -0.29789,1.39269 -1.4429,2.0932 -1.18906,0.72746 -2.56465,0.35859 -1.34865,-0.32483 -4.5952,-3.05936 -3.09474,-2.58531 -5.90241,-3.71215 -2.78073,-1.0828 -7.46033,-1.6091 -4.652658,-0.48227 -7.623502,0.004 -2.926806,0.45911 -12.726829,3.73119 z"
         style="font-style:italic;font-size:105.732px;font-family:'Monotype Corsiva';-inkscape-font-specification:'Monotype Corsiva Italic';text-align:center;text-anchor:middle"
         id="path261557" />
      <path
         d="m 148.17026,564.88153 2.72769,2.16619 -12.53516,5.33557 q -7.48926,3.17503 -16.64474,8.06184 -4.98179,2.64335 -6.2155,3.66284 -1.23371,1.01949 -0.41154,2.01441 0.52619,0.63676 2.51296,1.33903 3.51147,1.25061 7.57485,1.71027 l -0.4997,2.55608 q -7.88799,-1.11663 -9.8159,-1.66663 -3.85582,-1.09999 -6.59899,-2.7176 -1.80685,-1.05187 -2.99078,-2.48457 -0.85505,-1.03472 -0.80501,-1.94672 0.05,-0.912 0.96536,-1.6684 0.59696,-0.4933 1.89478,-1.02998 l 6.72786,-2.88072 q -6.92735,-0.0352 -13.78586,-2.33743 -4.231394,-1.39239 -6.237486,-3.82001 -1.907432,-2.30823 -1.295243,-4.8903 0.807593,-3.48024 4.349529,-6.40716 4.21849,-3.486 11.23376,-5.53265 7.04816,-2.00684 14.39088,-1.71212 7.34273,0.29472 12.78569,2.82907 4.17612,1.97386 8.35273,7.02809 1.05238,1.2735 1.97846,2.71835 z m -10.1669,0.0968 q -1.33812,-2.5108 -2.55493,-3.98329 -2.95981,-3.58173 -7.15307,-4.60379 -4.15347,-1.05495 -11.19472,0.87921 -6.96856,1.94108 -12.06258,6.15058 -2.7062,2.2363 -3.14372,4.13823 -0.43751,1.90194 0.7793,3.37443 2.26918,2.74599 7.81222,3.45634 5.58283,0.67746 12.37122,-2.4542 z"
         style="font-style:italic;font-size:105.732px;font-family:'Monotype Corsiva';-inkscape-font-specification:'Monotype Corsiva Italic';text-align:center;text-anchor:middle"
         id="path261559" />
      <path
         d="m 161.96789,590.4564 q 6.17344,-0.69865 10.5969,0.36408 4.49631,1.05795 6.82567,3.09984 2.71758,2.38221 2.44236,5.9856 -0.27522,3.60339 -4.12078,7.99035 -5.58118,6.36691 -13.91348,9.84162 -8.3323,3.47472 -15.54866,2.77858 -7.17755,-0.66212 -11.37039,-4.33753 -3.57168,-3.1309 -3.86921,-7.09906 -0.29754,-3.96815 2.62917,-7.3069 2.34818,-2.67876 7.58227,-6.53509 l 22.58377,-16.52143 q 8.2715,-6.06823 14.23216,-7.77726 5.99469,-1.74785 12.15178,-0.46986 6.19112,1.23917 9.87926,4.47217 2.21289,1.93979 2.54165,3.60107 0.40161,1.65648 -0.72143,2.93763 -1.02095,1.16467 -2.63332,1.12437 -1.61238,-0.0403 -3.32057,-1.5377 -1.28115,-1.12304 -3.9153,-4.46193 -1.1594,-1.4969 -2.24643,-2.44978 -1.94113,-1.70158 -4.98234,-0.66014 -2.32224,0.84782 -9.69454,6.12523 z m 9.72398,4.33604 q -1.90231,-1.66754 -6.55011,-1.69116 -4.60897,0.0104 -12.04307,3.79192 -7.40006,3.74267 -12.3006,9.33313 -1.83771,2.09642 -1.77691,4.68993 0.13366,2.58872 1.9195,4.15417 4.30931,3.7775 13.6424,-0.0557 9.36712,-3.87203 15.28861,-10.62716 2.6885,-3.06699 3.10893,-6.13116 0.26415,-2.1027 -1.28875,-3.46396 z"
         style="font-style:italic;font-size:105.732px;font-family:'Monotype Corsiva';-inkscape-font-specification:'Monotype Corsiva Italic';text-align:center;text-anchor:middle"
         id="path261561" />
      <path
         d="m 240.7988,620.92589 8.76301,0.71415 -9.6079,11.42227 9.63379,4.62572 -2.33124,2.9468 -9.63379,-4.62572 -11.5816,13.62443 q -5.28246,6.11134 -6.6009,8.85721 -0.60336,1.25658 -0.35957,2.06087 0.29032,0.82664 1.22112,1.27357 1.44274,0.69274 5.24813,0.40093 5.00434,-0.40336 9.92687,-1.59051 l 0.74058,2.99001 q -13.87944,2.78523 -18.15023,2.85358 -4.27078,0.0683 -6.36508,-0.93725 -1.72199,-0.82682 -2.14251,-2.57503 -0.37399,-1.72585 0.98915,-4.5648 1.60894,-3.35088 6.68475,-9.38965 l 13.68752,-16.22125 -7.53949,-3.62013 2.42432,-2.90211 7.49295,3.59778 z"
         style="font-style:italic;font-size:105.732px;font-family:'Monotype Corsiva';-inkscape-font-specification:'Monotype Corsiva Italic';text-align:center;text-anchor:middle"
         id="path261563" />
      <path
         d="m 287.97172,679.91517 0.72399,2.21956 q -6.08368,3.64397 -11.77913,5.13908 -3.8779,1.02594 -6.00051,0.37576 -1.72771,-0.52921 -2.39033,-2.24403 -0.61325,-1.69969 0.27885,-4.61211 0.60481,-1.97453 2.54377,-5.4842 2.00344,-3.54391 9.61474,-14.81915 3.55327,-5.60693 3.8708,-6.64356 0.51409,-1.67834 -1.16426,-2.19243 -2.07325,-0.63506 -5.81818,0.48561 -5.22093,1.53247 -9.93846,4.94696 -2.99959,2.21288 -6.00676,7.44715 l -9.21094,15.96873 -7.3551,-2.25293 q 5.01549,-7.91277 7.9773,-12.99895 l 16.96365,-29.46842 q 4.65083,-8.13245 9.29587,-11.83913 4.70952,-3.74091 10.75451,-4.96697 6.09435,-1.21094 11.17875,0.34646 2.12261,0.65018 3.03916,2.06481 0.91655,1.41464 0.4327,2.99426 -0.40825,1.3328 -1.95985,1.99142 -1.48713,0.62437 -3.56038,-0.0107 -1.18471,-0.36289 -2.98491,-1.18428 -4.06378,-1.89271 -5.69276,-2.39169 -2.27071,-0.69553 -4.26169,0.69241 -1.99098,1.38795 -5.59273,7.68196 l -12.99813,22.6919 q 7.76425,-4.37107 15.97544,-6.49944 4.81892,-1.27765 7.28707,-0.52163 1.92516,0.58969 2.64826,2.10705 0.73822,1.468 0.10317,3.54125 -0.5141,1.67835 -1.42309,3.23573 -1.53383,2.71586 -6.24691,9.64137 -6.44437,9.58088 -7.82298,11.96632 -1.32926,2.40055 -1.94919,4.42444 -0.24193,0.78981 -0.11607,1.26032 0.17521,0.48562 0.71821,0.65195 1.18471,0.36289 5.30454,-1.45287 2.29516,-0.9708 5.56158,-2.29203 z"
         style="font-style:italic;font-size:105.732px;font-family:'Monotype Corsiva';-inkscape-font-specification:'Monotype Corsiva Italic';text-align:center;text-anchor:middle"
         id="path261565" />
      <path
         d="m 327.84377,683.23823 1.36036,2.4924 q -14.24274,10.09111 -23.18409,8.79562 -3.62764,-0.52559 -5.21386,-3.25938 -1.53512,-2.72639 -0.75043,-8.1423 1.58419,-10.934 9.79572,-20.80345 9.24371,-11.23273 19.61568,-9.72997 3.62763,0.5256 5.25159,2.63886 1.68246,2.06958 1.22349,5.23737 -0.48118,3.32108 -3.24676,6.20684 -2.76558,2.88577 -9.19581,5.5014 -3.20771,1.25673 -13.5521,4.24424 -0.85959,2.69243 -1.22233,5.19601 -0.52559,3.62763 0.39119,5.22111 0.96787,1.60088 3.16489,1.9192 2.09483,0.30351 4.76867,-0.50891 3.60166,-1.09531 10.79379,-5.00904 z m -16.80931,-9.99951 q 8.75904,-2.48689 13.51204,-6.12803 3.2395,-2.55627 3.66146,-5.46859 0.31831,-2.19702 -0.67177,-3.64462 -0.93158,-1.49129 -2.77095,-1.75779 -1.89045,-0.2739 -3.886,0.89762 -2.6753,1.54253 -4.86549,5.13765 -3.16461,5.27975 -4.97929,10.96376 z"
         style="font-style:italic;font-size:105.732px;font-family:'Monotype Corsiva';-inkscape-font-specification:'Monotype Corsiva Italic';text-align:center;text-anchor:middle"
         id="path261567" />
      <path
         d="m 424.28327,648.43744 -2.65966,0.36514 q -0.17468,-5.44769 -0.55386,-8.20964 -0.54069,-3.93834 -2.99784,-5.89389 -2.41302,-2.01373 -6.04447,-1.51517 -5.62619,0.77241 -9.25851,5.43999 -3.63933,4.61642 -2.94416,9.67999 0.37216,2.7108 1.79934,4.75565 1.47833,2.03783 5.95735,5.43547 8.18078,6.06822 10.97896,9.74874 2.79819,3.68051 3.31781,7.46541 0.76539,5.57504 -1.95225,11.21137 -2.6665,5.62932 -8.85921,9.86674 -6.13455,4.28154 -13.49974,5.29269 -7.2629,0.99712 -12.79495,-2.09963 -5.4809,-3.10376 -6.0567,-7.29783 -0.30896,-2.25048 0.76608,-3.90929 1.12619,-1.66584 2.81405,-1.89757 1.73901,-0.23874 3.05384,0.98775 0.82841,0.72005 1.9377,3.48598 1.29584,3.36566 2.68289,4.73857 1.39406,1.42406 3.57336,2.11498 2.23748,0.73505 4.69254,0.398 7.31405,-1.00414 12.1127,-6.66562 4.79162,-5.71262 3.97005,-11.69684 -0.28087,-2.04589 -1.27079,-3.94232 -0.94579,-1.9546 -3.13818,-4.25917 -1.51743,-1.56346 -6.51997,-5.35823 -4.93736,-3.6995 -6.28027,-5.13058 -1.90155,-2.08395 -2.98475,-4.28024 -1.09021,-2.24744 -1.4062,-4.54907 -0.639,-4.65439 1.83497,-9.78827 2.47396,-5.13388 7.05605,-8.57695 4.62622,-3.50125 10.96847,-4.37197 3.17113,-0.43536 7.95894,-0.10255 2.72987,0.14633 4.70857,0.13523 -0.66881,3.47905 -0.8753,6.52985 -0.21352,2.99965 -0.0869,11.89328 z"
         style="font-style:italic;font-size:105.732px;font-family:'Monotype Corsiva';-inkscape-font-specification:'Monotype Corsiva Italic';text-align:center;text-anchor:middle"
         id="path261569" />
      <path
         d="m 446.43075,616.20735 q 1.53938,-0.43786 2.82914,0.32245 1.27563,0.71066 1.72761,2.29969 0.62148,2.18492 -0.43766,4.31112 -1.02361,2.06243 -2.91059,2.59916 -1.48971,0.42373 -2.77947,-0.33658 -1.28976,-0.76032 -1.76999,-2.44866 -0.6356,-2.23458 0.3666,-4.18356 0.98807,-1.99864 2.97436,-2.56362 z m -10.21455,38.43813 -2.66515,-1.06686 q 3.41203,-6.87475 6.8342,-10.31719 3.4577,-3.50622 6.33782,-4.32544 1.58903,-0.45198 2.63095,0.003 1.04192,0.45509 1.3809,1.64686 0.40961,1.44006 0.2469,13.13377 -0.24948,19.12552 0.78161,22.7505 0.19774,0.6952 0.68659,1.0929 0.47472,0.34804 0.87198,0.23505 1.58903,-0.45199 6.39235,-8.47391 l 2.47336,1.33612 q -4.98098,8.34083 -7.60091,11.01834 -2.61992,2.6775 -4.60621,3.24248 -1.738,0.49435 -3.09155,-0.30149 -1.30388,-0.80997 -1.85473,-2.7466 -1.76556,-6.20716 -1.18147,-32.45925 0.0227,-1.24099 -0.2315,-2.13482 -0.28249,-0.99314 -1.17632,-0.7389 -0.99315,0.28249 -2.05825,1.44424 -1.01543,1.14763 -4.17057,6.6611 z"
         style="font-style:italic;font-size:105.732px;font-family:'Monotype Corsiva';-inkscape-font-specification:'Monotype Corsiva Italic';text-align:center;text-anchor:middle"
         id="path261571" />
      <path
         d="m 464.25881,646.13406 -2.28497,-1.20096 q 2.42422,-6.80949 5.53378,-10.97249 3.10955,-4.163 5.48793,-5.29254 0.97934,-0.46511 1.64502,-0.26687 0.71231,0.17608 1.06668,0.92224 0.44296,0.9327 0.95923,3.94526 0.78781,4.42673 1.45334,6.91117 5.7883,-16.6944 11.71094,-19.50718 1.53895,-0.73088 2.7304,-0.26797 1.19146,0.46292 2.05522,2.28168 0.93022,1.95866 1.7681,7.33323 2.68079,-8.07441 5.51287,-12.21995 2.80994,-4.19216 5.00178,-5.23311 1.95867,-0.93021 3.56282,-0.32038 1.60415,0.60984 2.71154,2.94159 0.66444,1.39904 1.10615,3.53255 0.44172,2.13351 2.13262,13.27552 2.05214,13.82813 3.15953,16.15987 0.75303,1.58559 2.05881,0.96545 0.88606,-0.42081 1.45972,-1.37909 1.82125,-3.26539 3.33944,-7.52992 l 2.33628,0.94797 q -0.60282,1.2579 -2.13381,5.01413 -2.13615,5.12954 -3.13653,6.63341 -1.9518,2.87016 -3.81719,3.75607 -1.39905,0.66444 -3.13609,-0.22521 -1.71489,-0.84301 -2.86658,-3.26802 -1.0631,-2.23848 -1.82767,-5.53318 -0.78673,-3.34134 -2.59882,-15.34025 -1.36461,-9.01084 -2.16193,-10.6897 -0.75303,-1.58558 -2.15208,-0.92115 -1.16587,0.5537 -2.57084,2.64978 -2.85891,4.32973 -3.90265,9.11193 -0.71371,3.31093 0.38996,9.24511 2.34598,13.00273 4.2621,21.00865 l -6.62216,3.145 -6.58375,-31.79396 q -0.7156,-3.43227 -0.93708,-3.89862 -0.35436,-0.74616 -0.90462,-0.94206 -0.57241,-0.24253 -1.27194,0.0897 -1.25914,0.59799 -2.98712,3.81909 -3.04436,5.50371 -3.61238,9.60276 -0.54355,4.03026 1.02288,11.05919 l 3.89509,17.46799 -6.66879,3.16714 -5.29479,-24.74756 q -2.25286,-10.76082 -2.65152,-11.60025 -0.5094,-1.0726 -1.34883,-0.67394 -1.81876,0.86377 -4.89009,8.83789 z"
         style="font-style:italic;font-size:105.732px;font-family:'Monotype Corsiva';-inkscape-font-specification:'Monotype Corsiva Italic';text-align:center;text-anchor:middle"
         id="path261573" />
      <path
         d="m 557.69541,562.73902 -1.19623,-2.0857 q 4.80579,-5.78495 7.63584,-10.48274 1.62866,3.47469 4.67407,8.67092 l 7.504,12.99013 3.59028,-3.12494 q 2.45491,-2.2169 3.93144,-6.22657 1.51318,-4.04603 0.47632,-9.41663 -1.00021,-5.40696 -4.70865,-9.14564 -3.67208,-3.70203 -8.49288,-3.21052 -4.78414,0.45515 -10.24554,5.87237 -6.23114,6.18073 -9.11533,15.22252 -2.92055,9.00514 -1.38358,17.07922 1.53726,8.00108 6.19099,12.69275 2.2905,2.30919 4.84233,3.1957 2.51546,0.84985 6.31411,0.35419 3.10489,-0.46197 4.34104,0.78426 0.79985,0.80638 0.75875,1.9379 -0.0411,1.13153 -0.84748,1.93138 -2.16257,2.14508 -7.12346,1.17577 -4.96089,-0.9693 -9.46918,-5.51436 -8.25309,-8.3204 -8.67414,-21.5008 -0.58683,-17.30626 13.48821,-31.26743 5.35144,-5.30815 10.14181,-7.29653 4.82702,-2.02474 8.91267,-1.27802 4.1223,0.71035 6.92181,3.53269 3.563,3.59207 4.59779,9.47375 1.03509,5.80866 -1.54787,12.5883 -2.5463,6.74329 -8.26429,12.41501 -0.87968,0.87257 -2.8581,2.61683 l 8.41145,14.27153 q 2.13915,3.62279 4.02231,7.35405 3.54978,-2.13944 5.67569,-4.24816 2.67573,-2.65407 4.73664,-6.73438 l 1.59616,2.48889 q -2.09549,3.60559 -4.07479,5.56888 -1.906,1.89058 -5.9713,5.12311 -3.29587,2.54204 -5.12856,4.3599 -3.55541,3.52665 -6.45787,8.07812 l -1.48709,-2.37894 q 3.19391,-4.40426 3.42333,-6.95875 0.34322,-3.61271 -3.35513,-9.83376 L 563.23772,564.3678 q -1.16046,-1.90303 -1.77854,-2.52614 -0.58171,-0.58646 -1.4945,-0.55366 -0.94914,-0.004 -1.60891,0.65057 -0.25657,0.2545 -0.66036,0.80045 z"
         style="font-style:italic;font-size:105.732px;font-family:'Monotype Corsiva';-inkscape-font-specification:'Monotype Corsiva Italic';text-align:center;text-anchor:middle"
         id="path261575" />
      <path
         d="m 581.09976,508.49849 q 0.95388,-1.28511 2.43984,-1.46804 1.44451,-0.2137 2.77108,0.77095 1.82403,1.35389 2.27963,3.68519 0.44491,2.25907 -0.72436,3.83437 -0.9231,1.24366 -2.40907,1.42659 -1.48596,0.18293 -2.89544,-0.86326 -1.86548,-1.38466 -2.25826,-3.54074 -0.43423,-2.18685 0.79658,-3.84506 z m 15.31988,36.70325 -2.76336,0.77785 q -1.48306,-7.53025 -0.86684,-12.34501 0.60554,-4.88698 2.39021,-7.29139 0.98465,-1.32656 2.08812,-1.60052 1.10346,-0.27396 2.09839,0.46453 1.2022,0.89234 8.19792,10.26407 11.45495,15.31768 14.48119,17.56391 0.58037,0.43078 1.21031,0.4483 0.58849,-0.0133 0.83465,-0.3449 0.98465,-1.32656 -0.0941,-10.61416 l 2.77534,-0.44749 q 1.1322,9.64873 0.68607,13.36814 -0.44614,3.7194 -1.67695,5.37761 -1.07696,1.45093 -2.63515,1.64455 -1.52742,0.15216 -3.14417,-1.04788 -5.1819,-3.84628 -20.71361,-25.0189 -0.73807,-0.9979 -1.48427,-1.55176 -0.8291,-0.61541 -1.38297,0.13079 -0.6154,0.8291 -0.75214,2.39926 -0.10598,1.5287 0.75139,7.823 z"
         style="font-style:italic;font-size:105.732px;font-family:'Monotype Corsiva';-inkscape-font-specification:'Monotype Corsiva Italic';text-align:center;text-anchor:middle"
         id="path261577" />
      <path
         d="m 640.45145,511.75475 2.49362,-0.5633 q 1.85718,5.7799 2.28513,12.45343 0.40984,6.6028 -1.40534,9.6679 -0.81551,1.37707 -2.40777,1.63414 -1.54784,0.28338 -3.36913,-0.7952 -3.55374,-2.10455 -13.11699,-11.48803 l -16.66,-16.34626 q -9.02027,-8.88192 -11.56616,-12.78965 -3.83284,-5.98989 -3.88085,-12.79841 -0.0217,-6.85295 3.29297,-12.45009 1.1312,-1.91013 2.69542,-2.42381 1.54611,-0.58441 2.83434,0.17849 1.42149,0.84182 1.72298,2.46039 0.25707,1.59226 -0.95304,3.63566 -0.78921,1.33265 -2.6803,3.51278 -1.61811,1.92179 -2.69669,3.74308 -1.07858,1.82129 -0.87585,3.20136 0.30322,1.9196 3.09233,5.01135 2.81541,3.04733 11.50488,11.37334 l 16.00833,15.42033 q 12.04614,11.57387 12.66805,11.94217 1.42149,0.84182 2.02655,-0.17988 0.57875,-0.97728 0.52868,-3.52697 -0.12646,-5.05496 -1.54116,-10.87282 z"
         style="font-style:italic;font-size:105.732px;font-family:'Monotype Corsiva';-inkscape-font-specification:'Monotype Corsiva Italic';text-align:center;text-anchor:middle"
         id="path261579" />
      <path
         d="m 627.02967,465.4472 q 1.99347,-4.65017 7.01682,-6.14782 5.02335,-1.49765 11.61899,1.32983 10.53405,4.51582 15.75953,15.51858 5.17803,10.98241 1.6386,19.23882 -2.17655,5.07722 -6.84064,6.78506 -4.64374,1.66038 -10.38527,-0.80095 -9.96464,-4.27172 -15.96986,-13.5866 -7.41502,-11.66053 -2.83817,-22.33692 z m 1.82976,5.55892 q -1.72903,4.0333 2.43263,10.31102 4.13454,6.20993 14.28898,10.56302 6.16858,2.64441 10.72412,1.84494 3.34208,-0.58944 4.56257,-3.43647 1.70869,-3.98586 -1.82261,-9.37547 -4.61578,-6.92177 -14.10591,-10.99008 -7.11759,-3.05124 -10.98844,-2.40762 -3.8505,0.59617 -5.09134,3.49066 z"
         style="font-style:italic;font-size:105.732px;font-family:'Monotype Corsiva';-inkscape-font-specification:'Monotype Corsiva Italic';text-align:center;text-anchor:middle"
         id="path261581" />
      <path
         d="m 629.23673,430.516 -0.91281,-8.74455 12.99709,7.33864 2.77133,-10.32119 3.32591,1.74833 -2.77133,10.32119 15.52523,8.87275 q 6.98008,4.06589 9.92187,4.85579 1.34624,0.36148 2.09184,-0.0263 0.75898,-0.43768 1.02674,-1.43489 0.41503,-1.54569 -0.57298,-5.23214 -1.31858,-4.84433 -3.39246,-9.46381 l 2.80234,-1.27886 q 5.29505,13.12855 6.14919,17.31361 0.85413,4.18506 0.25167,6.4288 -0.49536,1.84485 -2.13614,2.58031 -1.62739,0.6856 -4.6689,-0.13107 -3.58998,-0.96394 -10.46064,-4.84009 l -18.46564,-10.46411 -2.16886,8.07745 -3.29914,-1.84805 2.15548,-8.02759 z"
         style="font-style:italic;font-size:105.732px;font-family:'Monotype Corsiva';-inkscape-font-specification:'Monotype Corsiva Italic';text-align:center;text-anchor:middle"
         id="path261583" />
    </g>
  </g>
</svg>
