<?xml version="1.0" standalone="no"?>
<!DOCTYPE svg PUBLIC "-//W3C//DTD SVG 20010904//EN"
 "http://www.w3.org/TR/2001/REC-SVG-20010904/DTD/svg10.dtd">
<svg version="1.0" xmlns="http://www.w3.org/2000/svg"
 width="700.000000pt" height="700.000000pt" viewBox="0 0 700.000000 700.000000"
 preserveAspectRatio="xMidYMid meet">
<metadata>
Created by potrace 1.14, written by Peter Selinger 2001-2017
</metadata>
<g transform="translate(0.000000,700.000000) scale(0.100000,-0.100000)"
fill="#000000" stroke="none">
<path d="M3150 6814 c-682 -81 -1314 -355 -1829 -792 -714 -607 -1148 -1479
-1190 -2392 -23 -485 44 -927 205 -1363 59 -158 214 -473 300 -607 379 -590
895 -1036 1517 -1310 294 -129 600 -214 962 -267 153 -22 652 -25 820 -5 944
115 1786 595 2347 1339 381 507 610 1095 669 1726 17 190 7 604 -21 782 -94
617 -329 1155 -716 1640 -113 141 -368 396 -509 509 -517 412 -1125 666 -1775
741 -170 19 -615 19 -780 -1z m825 -58 c512 -74 954 -231 1363 -487 425 -265
814 -656 1079 -1084 443 -713 596 -1591 423 -2417 -208 -987 -855 -1828 -1760
-2288 -376 -190 -755 -301 -1200 -351 -156 -17 -538 -15 -705 5 -764 91 -1437
409 -1979 936 -577 560 -924 1290 -997 2093 -17 189 -6 585 21 762 117 771
466 1433 1029 1959 537 501 1223 808 1977 885 135 14 618 5 749 -13z"/>
<path d="M2596 5871 c-16 -25 -17 -110 -2 -256 44 -423 -52 -614 -519 -1033
-271 -244 -367 -337 -439 -421 -206 -243 -319 -442 -361 -633 -13 -62 -16
-117 -13 -281 l3 -203 37 -76 c49 -99 179 -237 294 -314 62 -41 83 -61 80 -73
-20 -63 -96 -358 -95 -371 0 -17 0 -16 346 -283 l243 -187 140 0 c80 0 140 4
140 9 0 5 -109 101 -242 213 -133 112 -253 212 -267 224 l-24 21 17 85 c29
147 74 322 83 325 5 2 47 22 94 46 66 33 92 53 121 92 56 74 97 182 123 324
26 140 36 171 89 284 134 282 398 528 706 659 149 64 196 73 380 73 156 0 169
-2 240 -28 93 -34 195 -108 255 -184 130 -166 191 -381 216 -759 13 -206 33
-296 86 -394 l36 -68 -95 -129 c-52 -70 -98 -133 -102 -140 -3 -6 66 -87 169
-194 96 -100 239 -253 318 -340 l142 -159 138 0 c81 0 137 4 135 9 -1 5 -108
131 -236 280 -128 149 -231 271 -228 271 2 0 97 -106 211 -235 l208 -235 113
0 c63 0 114 3 113 8 0 4 -23 24 -51 46 -28 21 -176 135 -330 252 -260 199
-322 242 -287 196 8 -10 -7 4 -33 32 -26 28 -48 57 -48 64 0 7 18 40 41 73 30
45 45 59 57 54 155 -61 479 13 544 123 l17 29 -57 45 c-74 57 -124 119 -159
194 -35 76 -44 220 -19 306 20 68 122 230 128 202 2 -11 -14 -43 -39 -78 -127
-174 -105 -421 50 -563 30 -27 74 -59 99 -73 l46 -24 38 29 39 28 -28 -30 -29
-31 37 -12 c40 -13 220 -10 243 4 11 6 10 12 -5 29 l-18 20 29 -18 c28 -19 29
-19 84 10 235 123 299 451 127 652 -19 23 -35 46 -35 52 0 6 18 55 40 108 22
53 38 98 35 101 -3 3 -31 -19 -63 -49 -31 -30 -69 -64 -83 -77 l-25 -22 -60
22 c-85 32 -235 31 -318 -1 l-58 -23 -57 58 -56 58 51 -46 c38 -34 57 -45 73
-41 31 8 27 40 -23 166 -88 224 -198 430 -315 587 -74 100 -257 284 -352 353
-414 303 -911 376 -1424 210 -376 -122 -699 -404 -880 -768 -112 -225 -152
-381 -189 -730 -9 -82 -21 -167 -26 -187 -24 -86 -112 -140 -229 -140 -108 -1
-151 33 -193 149 -32 92 -37 286 -9 430 63 330 167 491 533 829 354 326 454
442 544 629 99 206 123 384 85 617 -25 151 -50 232 -73 236 -9 2 -19 -1 -22
-7z m2393 -2234 c8 -10 7 -14 -4 -14 -8 0 -15 6 -15 14 0 7 2 13 4 13 2 0 9
-6 15 -13z m142 -413 c43 -22 109 -84 109 -101 0 -23 -46 -8 -110 35 -82 55
-81 109 1 66z m549 -3 c0 -38 -131 -121 -167 -106 -33 12 106 125 155 125 6 0
12 -9 12 -19z m-289 -300 c-8 -5 -20 -7 -28 -4 -21 8 -15 13 15 13 20 0 23 -3
13 -9z m0 -138 c13 -16 12 -17 -3 -4 -15 11 -21 11 -35 0 -16 -13 -17 -12 -4
4 7 9 17 17 21 17 4 0 14 -8 21 -17z m-61 -17 c0 -2 -8 -10 -17 -17 -16 -13
-17 -12 -4 4 13 16 21 21 21 13z m101 -13 c13 -16 12 -17 -3 -4 -10 7 -18 15
-18 17 0 8 8 3 21 -13z m40 -30 c13 -16 12 -17 -3 -4 -10 7 -18 15 -18 17 0 8
8 3 21 -13z"/>
<path d="M525 3129 c-46 -17 -95 -69 -95 -100 0 -40 30 -47 55 -13 54 74 59
77 124 82 54 4 69 1 126 -27 110 -54 184 -163 193 -283 4 -64 3 -68 -26 -97
-26 -27 -38 -31 -82 -31 -58 0 -120 28 -145 66 -8 13 -19 41 -24 63 l-9 41 82
-5 c44 -3 100 -8 123 -10 l42 -4 -23 62 c-14 36 -31 63 -40 65 -9 2 -16 -3
-16 -11 0 -8 -6 -17 -12 -19 -22 -8 -388 12 -414 22 -13 5 -34 26 -45 45 -24
40 -56 49 -44 13 4 -13 14 -57 21 -98 33 -170 37 -185 62 -188 22 -3 23 -3 9
25 -8 15 -18 47 -22 71 l-7 42 39 0 c21 0 75 -3 120 -7 l82 -6 16 -56 c25 -87
74 -154 136 -185 94 -46 172 -25 209 57 47 103 -2 287 -103 388 -70 71 -138
102 -227 106 -41 1 -88 -2 -105 -8z"/>
<path d="M6360 2875 c-7 -25 -14 -45 -16 -45 -3 0 -21 11 -42 23 -84 53 -82
53 -82 3 0 -43 2 -46 51 -76 53 -32 55 -38 33 -93 -3 -9 2 -20 15 -26 18 -10
21 -7 32 28 l12 39 89 -54 c178 -108 235 -127 258 -83 13 24 8 55 -27 162 -20
62 -28 77 -45 77 -15 0 -18 -4 -13 -17 3 -10 14 -44 22 -76 28 -98 9 -96 -175
16 -81 50 -83 52 -77 82 13 53 11 79 -6 83 -12 2 -20 -10 -29 -43z"/>
<path d="M6239 2515 c-61 -33 -78 -150 -35 -241 32 -70 87 -128 149 -158 58
-30 105 -33 147 -11 92 48 82 222 -19 337 -64 73 -178 108 -242 73z m136 -104
c86 -41 155 -120 155 -177 0 -8 -9 -23 -21 -35 -17 -17 -29 -20 -61 -15 -87
14 -189 84 -219 151 -24 51 -23 61 1 85 28 28 74 25 145 -9z"/>
<path d="M534 2480 c-43 -13 -84 -54 -84 -83 0 -34 34 -73 93 -107 50 -28 50
-34 2 -42 -12 -2 -21 -12 -23 -26 -7 -47 142 -153 171 -122 7 8 8 14 2 16 -33
13 -76 46 -72 57 4 15 87 32 222 47 158 18 165 19 159 35 -3 8 -14 17 -23 20
-9 3 -23 21 -30 41 -20 56 -74 108 -143 139 -50 23 -80 29 -153 31 -49 2 -104
-1 -121 -6z m291 -74 c15 -10 35 -36 45 -59 l19 -42 -87 -13 c-106 -15 -172
-10 -217 18 -95 59 -19 124 137 117 51 -2 85 -9 103 -21z"/>
<path d="M5886 2442 c-49 -95 -41 -187 25 -275 43 -57 353 -373 382 -388 51
-28 84 34 73 137 -8 77 -14 94 -33 94 -12 0 -13 -11 -8 -64 4 -36 4 -70 0 -76
-9 -14 -397 368 -422 414 -16 31 -21 21 48 115 28 39 19 71 -21 71 -22 0 -33
-7 -44 -28z"/>
<path d="M944 2109 c-9 -14 4 -24 49 -39 71 -22 58 -30 -163 -93 -80 -22 -147
-42 -149 -44 -8 -6 34 -73 44 -70 5 3 53 17 105 32 146 42 230 37 303 -19 56
-43 73 -48 92 -30 20 20 19 30 -4 53 -22 22 -73 39 -146 48 l-50 6 50 17 c67
22 72 49 17 85 -56 37 -139 67 -148 54z"/>
<path d="M1721 2053 c0 -10 19 -83 43 -163 l42 -145 154 2 c84 2 155 5 158 8
3 3 -8 15 -23 27 -152 122 -343 271 -357 279 -14 8 -18 6 -17 -8z"/>
<path d="M5730 2051 c-15 -29 -12 -46 9 -65 29 -26 65 -17 69 17 6 53 -55 90
-78 48z"/>
<path d="M5864 1869 c-15 -16 -20 -39 -23 -105 -3 -79 -2 -84 17 -84 18 0 21
7 24 57 l3 58 77 -105 c109 -150 141 -182 175 -178 23 2 30 11 41 43 17 50 7
155 -14 155 -10 0 -14 -15 -14 -56 0 -40 -4 -55 -12 -52 -7 2 -60 67 -118 143
-58 77 -112 141 -121 143 -8 1 -24 -7 -35 -19z"/>
<path d="M5627 1794 c-64 -20 -173 -126 -212 -208 -23 -48 -30 -77 -33 -147
-5 -107 13 -169 68 -232 46 -52 83 -70 136 -65 34 3 39 6 42 31 3 26 2 27 -46
27 -180 0 -227 281 -75 450 25 28 58 57 74 65 86 45 169 -22 169 -135 0 -55
-15 -94 -50 -125 -21 -19 -22 -19 -36 -1 -8 11 -34 59 -59 108 l-46 88 -40
-50 c-45 -57 -51 -83 -16 -75 20 6 32 -10 120 -168 104 -186 115 -221 82 -271
-13 -19 -15 -30 -7 -38 7 -7 20 1 44 27 18 21 60 61 93 88 73 61 97 91 89 111
-5 12 -17 4 -54 -34 -27 -28 -52 -50 -57 -50 -4 0 -33 47 -63 104 l-54 104 43
47 c57 62 84 126 84 196 0 122 -84 188 -196 153z"/>
<path d="M1034 1710 c-67 -22 -130 -72 -139 -110 -9 -40 26 -76 93 -96 31 -9
64 -19 72 -21 10 -4 4 -10 -17 -19 -76 -32 -8 -100 118 -119 35 -5 47 -4 52 7
4 11 -8 18 -44 27 -27 7 -49 19 -49 26 0 14 138 83 268 135 78 31 98 51 58 58
-10 2 -39 25 -64 52 -35 36 -61 52 -101 64 -72 21 -172 19 -247 -4z m246 -42
c18 -13 39 -32 47 -44 13 -20 9 -22 -74 -60 -74 -32 -99 -39 -155 -39 -56 0
-71 4 -89 21 -29 30 -18 58 37 90 96 56 181 68 234 32z"/>
<path d="M1700 1512 c-50 -26 -316 -207 -366 -250 -62 -53 -68 -115 -16 -165
37 -35 76 -48 147 -48 77 0 159 30 225 82 130 103 99 203 -69 221 -20 3 -4 17
85 76 65 43 120 72 136 72 18 0 36 -13 63 -46 30 -36 43 -44 64 -42 33 4 41
41 14 70 -56 63 -190 77 -283 30z m-35 -215 c58 -43 -102 -188 -227 -204 -50
-7 -88 17 -88 56 0 36 57 88 144 131 65 33 139 40 171 17z"/>
<path d="M4936 1009 c-19 -23 -41 -58 -47 -77 l-12 -36 -16 35 c-32 68 -87 42
-141 -68 l-34 -68 -8 43 c-12 73 -21 77 -72 32 -36 -32 -89 -126 -80 -141 11
-18 24 -8 44 31 11 22 24 40 29 40 11 0 10 0 47 -200 15 -80 30 -148 33 -153
8 -9 71 11 71 23 0 4 -9 52 -20 105 -26 127 -25 178 4 241 26 55 44 73 55 55
4 -6 20 -84 36 -174 15 -89 31 -165 35 -170 6 -7 70 10 70 19 0 3 -9 58 -21
122 -12 64 -19 138 -16 164 4 51 50 132 70 125 7 -2 17 -41 24 -88 25 -175 35
-219 55 -244 37 -47 73 -25 122 72 31 61 30 59 11 67 -10 3 -20 -8 -34 -39
-11 -25 -24 -45 -30 -45 -14 0 -27 55 -46 200 -9 69 -23 135 -31 148 -23 35
-57 28 -98 -19z"/>
<path d="M2796 1024 c-70 -22 -126 -86 -231 -259 -49 -82 -111 -182 -137 -223
-27 -40 -48 -77 -48 -82 0 -8 69 -35 74 -28 1 1 13 21 26 43 85 144 110 174
172 205 64 31 102 38 114 19 3 -6 -27 -61 -69 -122 -89 -132 -97 -148 -97
-181 0 -33 32 -50 79 -41 45 8 131 45 131 56 0 18 -23 19 -65 3 -79 -30 -74
-10 35 147 45 63 84 125 87 138 15 61 -53 77 -166 38 -39 -14 -71 -23 -71 -20
0 8 127 216 150 246 26 32 43 34 101 7 56 -25 86 -25 99 -1 28 54 -83 87 -184
55z"/>
<path d="M2307 986 l-37 -45 -35 21 c-29 16 -38 18 -50 8 -22 -18 -19 -24 21
-43 l36 -17 -64 -71 c-96 -108 -129 -151 -145 -188 -13 -30 -12 -35 4 -53 16
-19 26 -20 113 -15 118 8 140 14 140 39 0 14 -5 18 -17 14 -42 -11 -119 -16
-132 -7 -22 14 -5 43 88 148 l82 92 43 -21 c43 -20 76 -20 76 2 0 6 -20 20
-44 32 l-45 21 46 54 c25 29 44 55 42 57 -2 2 -22 7 -44 10 -38 7 -42 5 -78
-38z"/>
<path d="M4362 1014 c-36 -25 -25 -94 15 -94 20 0 53 37 53 59 0 19 -24 51
-38 51 -4 0 -18 -7 -30 -16z"/>
<path d="M3989 885 c-49 -16 -110 -68 -135 -117 -20 -39 -20 -107 0 -146 8
-16 48 -59 87 -93 79 -70 99 -102 99 -152 0 -63 -72 -139 -145 -153 -50 -9
-86 13 -113 69 -17 36 -28 47 -45 47 -49 0 -63 -57 -27 -103 66 -84 243 -69
344 29 50 48 69 90 70 150 1 67 -29 112 -123 190 -74 61 -94 95 -84 146 8 41
64 95 107 103 64 13 96 -24 96 -111 0 -38 3 -45 18 -42 14 3 18 18 23 93 3 50
4 92 2 95 -10 11 -133 8 -174 -5z"/>
<path d="M4321 765 c-57 -51 -88 -104 -70 -116 10 -6 20 -2 32 14 56 70 52 80
57 -118 3 -99 9 -186 13 -192 17 -27 60 -14 101 30 55 57 75 95 56 107 -9 6
-22 -3 -42 -31 -15 -21 -32 -39 -38 -39 -6 0 -11 75 -12 188 l-3 187 -27 3
c-19 2 -38 -7 -67 -33z"/>
<path d="M3150 691 c-95 -30 -183 -126 -223 -245 -39 -113 -15 -166 76 -166
76 0 217 69 199 98 -6 9 -22 6 -70 -13 -104 -42 -140 -28 -122 49 4 21 10 39
12 40 1 2 43 15 93 30 110 34 165 81 165 140 0 26 -6 39 -22 50 -31 19 -77 26
-108 17z m40 -56 c22 -26 -10 -78 -62 -102 -58 -27 -88 -36 -88 -26 0 16 42
88 68 116 29 30 63 35 82 12z"/>
</g>
</svg>
